
<svg width="50" height="30" viewBox="0 0 50 30" fill="none" xmlns="http://www.w3.org/2000/svg">
<rect width="50" height="30" rx="6" fill="#4263EB"/>
<path d="M18.6882 13.4922H15.8885C15.8374 13.13 15.733 12.8082 15.5753 12.527C15.4176 12.2415 15.2152 11.9986 14.968 11.7983C14.7209 11.598 14.4354 11.4446 14.1115 11.3381C13.7919 11.2315 13.4446 11.1783 13.0696 11.1783C12.392 11.1783 11.8018 11.3466 11.299 11.6832C10.7962 12.0156 10.4063 12.5014 10.1293 13.1406C9.85227 13.7756 9.71378 14.5469 9.71378 15.4545C9.71378 16.3878 9.85227 17.1719 10.1293 17.8068C10.4105 18.4418 10.8026 18.9212 11.3054 19.245C11.8082 19.5689 12.3899 19.7308 13.0504 19.7308C13.4212 19.7308 13.7642 19.6818 14.0795 19.5838C14.3991 19.4858 14.6825 19.343 14.9297 19.1555C15.1768 18.9638 15.3814 18.7315 15.5433 18.4588C15.7095 18.1861 15.8246 17.875 15.8885 17.5256L18.6882 17.5384C18.6158 18.1392 18.4347 18.7188 18.1449 19.277C17.8594 19.831 17.4737 20.3274 16.9879 20.7663C16.5064 21.201 15.9311 21.5462 15.2621 21.8018C14.5973 22.0533 13.8452 22.179 13.0057 22.179C11.8381 22.179 10.794 21.9148 9.87358 21.3864C8.95739 20.858 8.23295 20.093 7.70028 19.0916C7.17188 18.0902 6.90767 16.8778 6.90767 15.4545C6.90767 14.027 7.17614 12.8125 7.71307 11.8111C8.25 10.8097 8.97869 10.0469 9.89915 9.52273C10.8196 8.99432 11.8551 8.73011 13.0057 8.73011C13.7642 8.73011 14.4673 8.83665 15.1151 9.04972C15.767 9.26278 16.3445 9.57386 16.8473 9.98295C17.3501 10.3878 17.7592 10.8842 18.0746 11.4723C18.3942 12.0604 18.5987 12.7337 18.6882 13.4922ZM27.7745 12.674C27.7234 12.1584 27.5039 11.7578 27.1161 11.4723C26.7283 11.1868 26.2021 11.044 25.5373 11.044C25.0856 11.044 24.7042 11.108 24.3931 11.2358C24.082 11.3594 23.8434 11.532 23.6772 11.7536C23.5153 11.9751 23.4343 12.2266 23.4343 12.5078C23.4258 12.7422 23.4748 12.9467 23.5813 13.1214C23.6921 13.2962 23.8434 13.4474 24.0352 13.5753C24.2269 13.6989 24.4485 13.8075 24.6999 13.9013C24.9513 13.9908 25.2198 14.0675 25.5053 14.1314L26.6815 14.4126C27.2525 14.5405 27.7766 14.7109 28.2539 14.924C28.7312 15.1371 29.1445 15.3991 29.494 15.7102C29.8434 16.0213 30.114 16.3878 30.3058 16.8097C30.5018 17.2315 30.6019 17.7152 30.6062 18.2607C30.6019 19.0618 30.3974 19.7564 29.9925 20.3445C29.592 20.9283 29.0124 21.3821 28.2539 21.706C27.4996 22.0256 26.5898 22.1854 25.5245 22.1854C24.4677 22.1854 23.5472 22.0234 22.7631 21.6996C21.9833 21.3757 21.3739 20.8963 20.935 20.2614C20.5004 19.6222 20.2724 18.8317 20.2511 17.8899H22.9293C22.9592 18.3288 23.0849 18.6953 23.3065 18.9893C23.5323 19.2791 23.8327 19.4986 24.2077 19.6477C24.587 19.7926 25.0153 19.8651 25.4925 19.8651C25.9613 19.8651 26.3683 19.7969 26.7134 19.6605C27.0629 19.5241 27.3335 19.3345 27.5252 19.0916C27.717 18.8487 27.8129 18.5696 27.8129 18.2543C27.8129 17.9602 27.7255 17.7131 27.5508 17.5128C27.3803 17.3125 27.1289 17.142 26.7965 17.0014C26.4684 16.8608 26.0657 16.733 25.5884 16.6179L24.163 16.2599C23.0593 15.9915 22.1879 15.5717 21.5487 15.0007C20.9094 14.4297 20.592 13.6605 20.5962 12.6932C20.592 11.9006 20.8029 11.2081 21.229 10.6158C21.6594 10.0234 22.2496 9.56108 22.9996 9.22869C23.7496 8.89631 24.6019 8.73011 25.5565 8.73011C26.5281 8.73011 27.3761 8.89631 28.1005 9.22869C28.8292 9.56108 29.396 10.0234 29.8008 10.6158C30.2056 11.2081 30.4144 11.8942 30.4272 12.674H27.7745ZM39.5694 12.674C39.5183 12.1584 39.2988 11.7578 38.911 11.4723C38.5233 11.1868 37.997 11.044 37.3322 11.044C36.8805 11.044 36.4991 11.108 36.188 11.2358C35.877 11.3594 35.6383 11.532 35.4721 11.7536C35.3102 11.9751 35.2292 12.2266 35.2292 12.5078C35.2207 12.7422 35.2697 12.9467 35.3762 13.1214C35.487 13.2962 35.6383 13.4474 35.8301 13.5753C36.0218 13.6989 36.2434 13.8075 36.4949 13.9013C36.7463 13.9908 37.0147 14.0675 37.3002 14.1314L38.4764 14.4126C39.0474 14.5405 39.5716 14.7109 40.0488 14.924C40.5261 15.1371 40.9395 15.3991 41.2889 15.7102C41.6383 16.0213 41.9089 16.3878 42.1007 16.8097C42.2967 17.2315 42.3968 17.7152 42.4011 18.2607C42.3968 19.0618 42.1923 19.7564 41.7875 20.3445C41.3869 20.9283 40.8074 21.3821 40.0488 21.706C39.2946 22.0256 38.3848 22.1854 37.3194 22.1854C36.2626 22.1854 35.3422 22.0234 34.5581 21.6996C33.7782 21.3757 33.1689 20.8963 32.7299 20.2614C32.2953 19.6222 32.0673 18.8317 32.046 17.8899H34.7243C34.7541 18.3288 34.8798 18.6953 35.1014 18.9893C35.3272 19.2791 35.6277 19.4986 36.0027 19.6477C36.3819 19.7926 36.8102 19.8651 37.2875 19.8651C37.7562 19.8651 38.1632 19.7969 38.5083 19.6605C38.8578 19.5241 39.1284 19.3345 39.3201 19.0916C39.5119 18.8487 39.6078 18.5696 39.6078 18.2543C39.6078 17.9602 39.5204 17.7131 39.3457 17.5128C39.1752 17.3125 38.9238 17.142 38.5914 17.0014C38.2633 16.8608 37.8606 16.733 37.3833 16.6179L35.9579 16.2599C34.8542 15.9915 33.9828 15.5717 33.3436 15.0007C32.7044 14.4297 32.3869 13.6605 32.3912 12.6932C32.3869 11.9006 32.5978 11.2081 33.024 10.6158C33.4544 10.0234 34.0446 9.56108 34.7946 9.22869C35.5446 8.89631 36.3968 8.73011 37.3514 8.73011C38.323 8.73011 39.171 8.89631 39.8954 9.22869C40.6241 9.56108 41.1909 10.0234 41.5957 10.6158C42.0005 11.2081 42.2093 11.8942 42.2221 12.674H39.5694Z" fill="white"/>
</svg>
