
<svg width="31" height="31" viewBox="0 0 31 31" fill="none" xmlns="http://www.w3.org/2000/svg">
<rect width="31" height="31" rx="8" fill="#3B5BDB"/>
<path d="M15.2237 8.90909H17.9915V17.4105C17.9915 18.3651 17.7635 19.2003 17.3075 19.9162C16.8558 20.6321 16.223 21.1903 15.4091 21.5909C14.5952 21.9872 13.647 22.1854 12.5646 22.1854C11.478 22.1854 10.5277 21.9872 9.71378 21.5909C8.89986 21.1903 8.26705 20.6321 7.81534 19.9162C7.36364 19.2003 7.13778 18.3651 7.13778 17.4105V8.90909H9.90554V17.174C9.90554 17.6726 10.0142 18.1158 10.2315 18.5036C10.4531 18.8913 10.7642 19.196 11.1648 19.4176C11.5653 19.6392 12.032 19.75 12.5646 19.75C13.1016 19.75 13.5682 19.6392 13.9645 19.4176C14.3651 19.196 14.674 18.8913 14.8913 18.5036C15.1129 18.1158 15.2237 17.6726 15.2237 17.174V8.90909ZM23.0364 8.90909V22H20.2686V8.90909H23.0364Z" fill="white"/>
</svg>
