<svg width="144" height="31" viewBox="0 0 144 31" fill="none" xmlns="http://www.w3.org/2000/svg" class="astro-3EF6KSR2">
  <rect width="31" height="31" rx="8" fill="#4263EB" class="astro-3EF6KSR2"></rect>
  <path d="M15.2237 8.90909H17.9915V17.4105C17.9915 18.3651 17.7635 19.2003 17.3075 19.9162C16.8558 20.6321 16.223 21.1903 15.4091 21.5909C14.5952 21.9872 13.647 22.1854 12.5646 22.1854C11.478 22.1854 10.5277 21.9872 9.71378 21.5909C8.89986 21.1903 8.26705 20.6321 7.81534 19.9162C7.36364 19.2003 7.13778 18.3651 7.13778 17.4105V8.90909H9.90554V17.174C9.90554 17.6726 10.0142 18.1158 10.2315 18.5036C10.4531 18.8913 10.7642 19.196 11.1648 19.4176C11.5653 19.6392 12.032 19.75 12.5646 19.75C13.1016 19.75 13.5682 19.6392 13.9645 19.4176C14.3651 19.196 14.674 18.8913 14.8913 18.5036C15.1129 18.1158 15.2237 17.6726 15.2237 17.174V8.90909ZM23.0364 8.90909V22H20.2686V8.90909H23.0364Z" fill="white" class="astro-3EF6KSR2"></path>
  <path d="M40.4716 22.1918C39.4915 22.1918 38.6499 21.9766 37.9467 21.5462C37.2479 21.1158 36.7088 20.5213 36.3295 19.7628C35.9545 19 35.767 18.1222 35.767 17.1293C35.767 16.1321 35.9588 15.2521 36.3423 14.4893C36.7259 13.7223 37.267 13.1257 37.9659 12.6996C38.669 12.2692 39.5 12.054 40.4588 12.054C41.2557 12.054 41.9609 12.201 42.5746 12.495C43.1925 12.7848 43.6847 13.196 44.0511 13.7287C44.4176 14.2571 44.6264 14.875 44.6776 15.5824H42.4659C42.3764 15.1094 42.1634 14.7152 41.8267 14.3999C41.4943 14.0803 41.049 13.9205 40.4908 13.9205C40.0178 13.9205 39.6023 14.0483 39.2443 14.304C38.8864 14.5554 38.6072 14.9176 38.407 15.3906C38.2109 15.8636 38.1129 16.4304 38.1129 17.0909C38.1129 17.7599 38.2109 18.3352 38.407 18.8168C38.603 19.294 38.8778 19.6626 39.2315 19.9226C39.5895 20.1783 40.0092 20.3061 40.4908 20.3061C40.8317 20.3061 41.1364 20.2422 41.4048 20.1143C41.6776 19.9822 41.9055 19.7926 42.0888 19.5455C42.272 19.2983 42.3977 18.9979 42.4659 18.6442H44.6776C44.6222 19.3388 44.4176 19.9545 44.0639 20.4915C43.7102 21.0241 43.2287 21.4418 42.6193 21.7443C42.0099 22.0426 41.294 22.1918 40.4716 22.1918ZM50.8603 22.1918C49.9015 22.1918 49.0705 21.9808 48.3674 21.5589C47.6642 21.1371 47.1188 20.5469 46.731 19.7884C46.3475 19.0298 46.1557 18.1435 46.1557 17.1293C46.1557 16.1151 46.3475 15.2266 46.731 14.4638C47.1188 13.701 47.6642 13.1087 48.3674 12.6868C49.0705 12.2649 49.9015 12.054 50.8603 12.054C51.8191 12.054 52.65 12.2649 53.3532 12.6868C54.0563 13.1087 54.5996 13.701 54.9831 14.4638C55.3709 15.2266 55.5648 16.1151 55.5648 17.1293C55.5648 18.1435 55.3709 19.0298 54.9831 19.7884C54.5996 20.5469 54.0563 21.1371 53.3532 21.5589C52.65 21.9808 51.8191 22.1918 50.8603 22.1918ZM50.873 20.3381C51.3929 20.3381 51.8276 20.1953 52.177 19.9098C52.5265 19.62 52.7864 19.2322 52.9569 18.7464C53.1316 18.2607 53.2189 17.7195 53.2189 17.1229C53.2189 16.522 53.1316 15.9787 52.9569 15.4929C52.7864 15.0028 52.5265 14.6129 52.177 14.3232C51.8276 14.0334 51.3929 13.8885 50.873 13.8885C50.3404 13.8885 49.8972 14.0334 49.5435 14.3232C49.1941 14.6129 48.932 15.0028 48.7573 15.4929C48.5868 15.9787 48.5016 16.522 48.5016 17.1229C48.5016 17.7195 48.5868 18.2607 48.7573 18.7464C48.932 19.2322 49.1941 19.62 49.5435 19.9098C49.8972 20.1953 50.3404 20.3381 50.873 20.3381ZM57.5288 22V12.1818H59.7404V13.8501H59.8555C60.06 13.2876 60.3988 12.8487 60.8718 12.5334C61.3448 12.2138 61.9094 12.054 62.5657 12.054C63.2305 12.054 63.7908 12.2159 64.2468 12.5398C64.707 12.8594 65.0309 13.2962 65.2184 13.8501H65.3207C65.538 13.3047 65.9045 12.87 66.4201 12.5462C66.94 12.218 67.5558 12.054 68.2674 12.054C69.1708 12.054 69.908 12.3395 70.479 12.9105C71.0501 13.4815 71.3356 14.3146 71.3356 15.4098V22H69.0153V15.7678C69.0153 15.1584 68.8533 14.7131 68.5295 14.4318C68.2056 14.1463 67.8093 14.0036 67.3406 14.0036C66.7823 14.0036 66.3455 14.1783 66.0302 14.5277C65.7191 14.8729 65.5636 15.3224 65.5636 15.8764V22H63.2944V15.6719C63.2944 15.1648 63.141 14.7599 62.8342 14.4574C62.5316 14.1548 62.1353 14.0036 61.6452 14.0036C61.3129 14.0036 61.0103 14.0888 60.7376 14.2592C60.4648 14.4254 60.2475 14.6619 60.0856 14.9688C59.9237 15.2713 59.8427 15.625 59.8427 16.0298V22H57.5288ZM73.6831 25.6818V12.1818H75.9586V13.8054H76.0929C76.2122 13.5668 76.3805 13.3132 76.5978 13.0447C76.8152 12.772 77.1092 12.5398 77.4799 12.348C77.8507 12.152 78.3237 12.054 78.899 12.054C79.6575 12.054 80.3414 12.2479 80.9508 12.6357C81.5645 13.0192 82.0502 13.5881 82.4082 14.3423C82.7704 15.0923 82.9515 16.0128 82.9515 17.1037C82.9515 18.1818 82.7747 19.098 82.421 19.8523C82.0673 20.6065 81.5858 21.1818 80.9764 21.5781C80.367 21.9744 79.6767 22.1726 78.9054 22.1726C78.3429 22.1726 77.8762 22.0788 77.5055 21.8913C77.1348 21.7038 76.8365 21.478 76.6106 21.2138C76.389 20.9453 76.2164 20.6918 76.0929 20.4531H75.997V25.6818H73.6831ZM75.9522 17.0909C75.9522 17.7259 76.0417 18.282 76.2207 18.7592C76.4039 19.2365 76.666 19.6094 77.0069 19.8778C77.3521 20.142 77.7697 20.2741 78.2598 20.2741C78.7711 20.2741 79.1994 20.1378 79.5446 19.8651C79.8897 19.5881 80.1497 19.2109 80.3244 18.7337C80.5034 18.2521 80.5929 17.7045 80.5929 17.0909C80.5929 16.4815 80.5055 15.9403 80.3308 15.4673C80.1561 14.9943 79.8961 14.6236 79.551 14.3551C79.2058 14.0866 78.7754 13.9524 78.2598 13.9524C77.7654 13.9524 77.3457 14.0824 77.0005 14.3423C76.6554 14.6023 76.3933 14.9666 76.2143 15.4354C76.0396 15.9041 75.9522 16.456 75.9522 17.0909ZM89.2157 22.1918C88.2569 22.1918 87.426 21.9808 86.7228 21.5589C86.0197 21.1371 85.4743 20.5469 85.0865 19.7884C84.7029 19.0298 84.5112 18.1435 84.5112 17.1293C84.5112 16.1151 84.7029 15.2266 85.0865 14.4638C85.4743 13.701 86.0197 13.1087 86.7228 12.6868C87.426 12.2649 88.2569 12.054 89.2157 12.054C90.1745 12.054 91.0055 12.2649 91.7086 12.6868C92.4118 13.1087 92.9551 13.701 93.3386 14.4638C93.7264 15.2266 93.9203 16.1151 93.9203 17.1293C93.9203 18.1435 93.7264 19.0298 93.3386 19.7884C92.9551 20.5469 92.4118 21.1371 91.7086 21.5589C91.0055 21.9808 90.1745 22.1918 89.2157 22.1918ZM89.2285 20.3381C89.7484 20.3381 90.1831 20.1953 90.5325 19.9098C90.8819 19.62 91.1419 19.2322 91.3123 18.7464C91.487 18.2607 91.5744 17.7195 91.5744 17.1229C91.5744 16.522 91.487 15.9787 91.3123 15.4929C91.1419 15.0028 90.8819 14.6129 90.5325 14.3232C90.1831 14.0334 89.7484 13.8885 89.2285 13.8885C88.6958 13.8885 88.2527 14.0334 87.899 14.3232C87.5495 14.6129 87.2875 15.0028 87.1127 15.4929C86.9423 15.9787 86.8571 16.522 86.8571 17.1229C86.8571 17.7195 86.9423 18.2607 87.1127 18.7464C87.2875 19.2322 87.5495 19.62 87.899 19.9098C88.2527 20.1953 88.6958 20.3381 89.2285 20.3381ZM98.1982 16.2472V22H95.8842V12.1818H98.0959V13.8501H98.2109C98.4368 13.3004 98.7969 12.8636 99.2912 12.5398C99.7898 12.2159 100.406 12.054 101.138 12.054C101.816 12.054 102.406 12.1989 102.909 12.4886C103.416 12.7784 103.808 13.1982 104.085 13.7479C104.366 14.2976 104.505 14.9645 104.501 15.7486V22H102.187V16.1065C102.187 15.4503 102.016 14.9368 101.675 14.5661C101.339 14.1953 100.872 14.0099 100.276 14.0099C99.8707 14.0099 99.5107 14.0994 99.1953 14.2784C98.8842 14.4531 98.6392 14.7067 98.4602 15.0391C98.2855 15.3714 98.1982 15.7741 98.1982 16.2472ZM111.2 22.1918C110.215 22.1918 109.365 21.9872 108.649 21.5781C107.938 21.1648 107.39 20.581 107.006 19.8267C106.623 19.0682 106.431 18.1754 106.431 17.1484C106.431 16.1385 106.623 15.2521 107.006 14.4893C107.394 13.7223 107.935 13.1257 108.63 12.6996C109.325 12.2692 110.141 12.054 111.078 12.054C111.683 12.054 112.254 12.152 112.791 12.348C113.332 12.5398 113.81 12.8381 114.223 13.2429C114.641 13.6477 114.969 14.1634 115.207 14.7898C115.446 15.4119 115.565 16.1534 115.565 17.0142V17.7237H107.518V16.1641H113.347C113.343 15.7209 113.247 15.3267 113.06 14.9815C112.872 14.6321 112.61 14.3572 112.273 14.157C111.941 13.9567 111.553 13.8565 111.11 13.8565C110.637 13.8565 110.222 13.9716 109.864 14.2017C109.506 14.4276 109.227 14.7259 109.026 15.0966C108.83 15.4631 108.73 15.8658 108.726 16.3047V17.6662C108.726 18.2372 108.83 18.7273 109.039 19.1364C109.248 19.5412 109.54 19.8523 109.915 20.0696C110.29 20.2827 110.729 20.3892 111.232 20.3892C111.568 20.3892 111.873 20.3423 112.146 20.2486C112.418 20.1506 112.655 20.0078 112.855 19.8203C113.055 19.6328 113.207 19.4006 113.309 19.1236L115.469 19.3665C115.333 19.9375 115.073 20.4361 114.69 20.8622C114.31 21.2841 113.825 21.6122 113.232 21.8466C112.64 22.0767 111.962 22.1918 111.2 22.1918ZM119.837 16.2472V22H117.523V12.1818H119.735V13.8501H119.85C120.075 13.3004 120.436 12.8636 120.93 12.5398C121.428 12.2159 122.044 12.054 122.777 12.054C123.455 12.054 124.045 12.1989 124.548 12.4886C125.055 12.7784 125.447 13.1982 125.724 13.7479C126.005 14.2976 126.144 14.9645 126.139 15.7486V22H123.825V16.1065C123.825 15.4503 123.655 14.9368 123.314 14.5661C122.977 14.1953 122.511 14.0099 121.914 14.0099C121.509 14.0099 121.149 14.0994 120.834 14.2784C120.523 14.4531 120.278 14.7067 120.099 15.0391C119.924 15.3714 119.837 15.7741 119.837 16.2472ZM133.394 12.1818V13.9716H127.75V12.1818H133.394ZM129.144 9.82955H131.458V19.0469C131.458 19.358 131.504 19.5966 131.598 19.7628C131.696 19.9247 131.824 20.0355 131.982 20.0952C132.139 20.1548 132.314 20.1847 132.506 20.1847C132.651 20.1847 132.783 20.174 132.902 20.1527C133.026 20.1314 133.119 20.1122 133.183 20.0952L133.573 21.9041C133.45 21.9467 133.273 21.9936 133.043 22.0447C132.817 22.0959 132.54 22.1257 132.212 22.1342C131.632 22.1513 131.11 22.0639 130.646 21.8722C130.181 21.6761 129.813 21.3736 129.54 20.9645C129.271 20.5554 129.139 20.044 129.144 19.4304V9.82955ZM142.949 14.777L140.839 15.0071C140.78 14.794 140.675 14.5938 140.526 14.4062C140.381 14.2188 140.185 14.0675 139.938 13.9524C139.691 13.8374 139.388 13.7798 139.031 13.7798C138.549 13.7798 138.144 13.8842 137.816 14.093C137.492 14.3018 137.332 14.5724 137.337 14.9048C137.332 15.1903 137.437 15.4226 137.65 15.6016C137.867 15.7805 138.225 15.9276 138.724 16.0426L140.398 16.4006C141.327 16.6009 142.018 16.9183 142.469 17.353C142.925 17.7876 143.156 18.3565 143.16 19.0597C143.156 19.6776 142.974 20.223 142.616 20.696C142.263 21.1648 141.771 21.5312 141.14 21.7955C140.509 22.0597 139.785 22.1918 138.967 22.1918C137.765 22.1918 136.798 21.9403 136.065 21.4375C135.332 20.9304 134.895 20.2251 134.754 19.3217L137.011 19.1044C137.113 19.5476 137.33 19.8821 137.663 20.108C137.995 20.3338 138.428 20.4467 138.96 20.4467C139.51 20.4467 139.951 20.3338 140.283 20.108C140.62 19.8821 140.788 19.603 140.788 19.2706C140.788 18.9893 140.68 18.7571 140.462 18.5739C140.249 18.3906 139.917 18.25 139.465 18.152L137.79 17.8004C136.849 17.6044 136.152 17.2741 135.7 16.8097C135.249 16.3409 135.025 15.7486 135.029 15.0327C135.025 14.4276 135.189 13.9034 135.521 13.4602C135.858 13.0128 136.325 12.6676 136.921 12.4247C137.522 12.1776 138.214 12.054 138.999 12.054C140.149 12.054 141.055 12.299 141.715 12.7891C142.38 13.2791 142.791 13.9418 142.949 14.777Z" fill="#252521" class="astro-3EF6KSR2"></path>
</svg>