<svg width="130" height="30" viewBox="0 0 130 30" fill="none" xmlns="http://www.w3.org/2000/svg">
<rect width="50" height="30" rx="6" fill="#4263EB"/>
<path d="M18.6882 13.4922H15.8885C15.8374 13.13 15.733 12.8082 15.5753 12.527C15.4176 12.2415 15.2152 11.9986 14.968 11.7983C14.7209 11.598 14.4354 11.4446 14.1115 11.3381C13.7919 11.2315 13.4446 11.1783 13.0696 11.1783C12.392 11.1783 11.8018 11.3466 11.299 11.6832C10.7962 12.0156 10.4063 12.5014 10.1293 13.1406C9.85227 13.7756 9.71378 14.5469 9.71378 15.4545C9.71378 16.3878 9.85227 17.1719 10.1293 17.8068C10.4105 18.4418 10.8026 18.9212 11.3054 19.245C11.8082 19.5689 12.3899 19.7308 13.0504 19.7308C13.4212 19.7308 13.7642 19.6818 14.0795 19.5838C14.3991 19.4858 14.6825 19.343 14.9297 19.1555C15.1768 18.9638 15.3814 18.7315 15.5433 18.4588C15.7095 18.1861 15.8246 17.875 15.8885 17.5256L18.6882 17.5384C18.6158 18.1392 18.4347 18.7188 18.1449 19.277C17.8594 19.831 17.4737 20.3274 16.9879 20.7663C16.5064 21.201 15.9311 21.5462 15.2621 21.8018C14.5973 22.0533 13.8452 22.179 13.0057 22.179C11.8381 22.179 10.794 21.9148 9.87358 21.3864C8.95739 20.858 8.23295 20.093 7.70028 19.0916C7.17188 18.0902 6.90767 16.8778 6.90767 15.4545C6.90767 14.027 7.17614 12.8125 7.71307 11.8111C8.25 10.8097 8.97869 10.0469 9.89915 9.52273C10.8196 8.99432 11.8551 8.73011 13.0057 8.73011C13.7642 8.73011 14.4673 8.83665 15.1151 9.04972C15.767 9.26278 16.3445 9.57386 16.8473 9.98295C17.3501 10.3878 17.7592 10.8842 18.0746 11.4723C18.3942 12.0604 18.5987 12.7337 18.6882 13.4922ZM27.7745 12.674C27.7234 12.1584 27.5039 11.7578 27.1161 11.4723C26.7283 11.1868 26.2021 11.044 25.5373 11.044C25.0856 11.044 24.7042 11.108 24.3931 11.2358C24.082 11.3594 23.8434 11.532 23.6772 11.7536C23.5153 11.9751 23.4343 12.2266 23.4343 12.5078C23.4258 12.7422 23.4748 12.9467 23.5813 13.1214C23.6921 13.2962 23.8434 13.4474 24.0352 13.5753C24.2269 13.6989 24.4485 13.8075 24.6999 13.9013C24.9513 13.9908 25.2198 14.0675 25.5053 14.1314L26.6815 14.4126C27.2525 14.5405 27.7766 14.7109 28.2539 14.924C28.7312 15.1371 29.1445 15.3991 29.494 15.7102C29.8434 16.0213 30.114 16.3878 30.3058 16.8097C30.5018 17.2315 30.6019 17.7152 30.6062 18.2607C30.6019 19.0618 30.3974 19.7564 29.9925 20.3445C29.592 20.9283 29.0124 21.3821 28.2539 21.706C27.4996 22.0256 26.5898 22.1854 25.5245 22.1854C24.4677 22.1854 23.5472 22.0234 22.7631 21.6996C21.9833 21.3757 21.3739 20.8963 20.935 20.2614C20.5004 19.6222 20.2724 18.8317 20.2511 17.8899H22.9293C22.9592 18.3288 23.0849 18.6953 23.3065 18.9893C23.5323 19.2791 23.8327 19.4986 24.2077 19.6477C24.587 19.7926 25.0153 19.8651 25.4925 19.8651C25.9613 19.8651 26.3683 19.7969 26.7134 19.6605C27.0629 19.5241 27.3335 19.3345 27.5252 19.0916C27.717 18.8487 27.8129 18.5696 27.8129 18.2543C27.8129 17.9602 27.7255 17.7131 27.5508 17.5128C27.3803 17.3125 27.1289 17.142 26.7965 17.0014C26.4684 16.8608 26.0657 16.733 25.5884 16.6179L24.163 16.2599C23.0593 15.9915 22.1879 15.5717 21.5487 15.0007C20.9094 14.4297 20.592 13.6605 20.5962 12.6932C20.592 11.9006 20.8029 11.2081 21.229 10.6158C21.6594 10.0234 22.2496 9.56108 22.9996 9.22869C23.7496 8.89631 24.6019 8.73011 25.5565 8.73011C26.5281 8.73011 27.3761 8.89631 28.1005 9.22869C28.8292 9.56108 29.396 10.0234 29.8008 10.6158C30.2056 11.2081 30.4144 11.8942 30.4272 12.674H27.7745ZM39.5694 12.674C39.5183 12.1584 39.2988 11.7578 38.911 11.4723C38.5233 11.1868 37.997 11.044 37.3322 11.044C36.8805 11.044 36.4991 11.108 36.188 11.2358C35.877 11.3594 35.6383 11.532 35.4721 11.7536C35.3102 11.9751 35.2292 12.2266 35.2292 12.5078C35.2207 12.7422 35.2697 12.9467 35.3762 13.1214C35.487 13.2962 35.6383 13.4474 35.8301 13.5753C36.0218 13.6989 36.2434 13.8075 36.4949 13.9013C36.7463 13.9908 37.0147 14.0675 37.3002 14.1314L38.4764 14.4126C39.0474 14.5405 39.5716 14.7109 40.0488 14.924C40.5261 15.1371 40.9395 15.3991 41.2889 15.7102C41.6383 16.0213 41.9089 16.3878 42.1007 16.8097C42.2967 17.2315 42.3968 17.7152 42.4011 18.2607C42.3968 19.0618 42.1923 19.7564 41.7875 20.3445C41.3869 20.9283 40.8074 21.3821 40.0488 21.706C39.2946 22.0256 38.3848 22.1854 37.3194 22.1854C36.2626 22.1854 35.3422 22.0234 34.5581 21.6996C33.7782 21.3757 33.1689 20.8963 32.7299 20.2614C32.2953 19.6222 32.0673 18.8317 32.046 17.8899H34.7243C34.7541 18.3288 34.8798 18.6953 35.1014 18.9893C35.3272 19.2791 35.6277 19.4986 36.0027 19.6477C36.3819 19.7926 36.8102 19.8651 37.2875 19.8651C37.7562 19.8651 38.1632 19.7969 38.5083 19.6605C38.8578 19.5241 39.1284 19.3345 39.3201 19.0916C39.5119 18.8487 39.6078 18.5696 39.6078 18.2543C39.6078 17.9602 39.5204 17.7131 39.3457 17.5128C39.1752 17.3125 38.9238 17.142 38.5914 17.0014C38.2633 16.8608 37.8606 16.733 37.3833 16.6179L35.9579 16.2599C34.8542 15.9915 33.9828 15.5717 33.3436 15.0007C32.7044 14.4297 32.3869 13.6605 32.3912 12.6932C32.3869 11.9006 32.5978 11.2081 33.024 10.6158C33.4544 10.0234 34.0446 9.56108 34.7946 9.22869C35.5446 8.89631 36.3968 8.73011 37.3514 8.73011C38.323 8.73011 39.171 8.89631 39.8954 9.22869C40.6241 9.56108 41.1909 10.0234 41.5957 10.6158C42.0005 11.2081 42.2093 11.8942 42.2221 12.674H39.5694Z" fill="white"/>
<path d="M62.9489 14.777L60.8395 15.0071C60.7798 14.794 60.6754 14.5938 60.5263 14.4062C60.3814 14.2188 60.1854 14.0675 59.9382 13.9524C59.6911 13.8374 59.3885 13.7798 59.0305 13.7798C58.549 13.7798 58.1442 13.8842 57.8161 14.093C57.4922 14.3018 57.3324 14.5724 57.3366 14.9048C57.3324 15.1903 57.4368 15.4226 57.6499 15.6016C57.8672 15.7805 58.2251 15.9276 58.7237 16.0426L60.3984 16.4006C61.3274 16.6009 62.0178 16.9183 62.4695 17.353C62.9254 17.7876 63.1555 18.3565 63.1598 19.0597C63.1555 19.6776 62.9744 20.223 62.6165 20.696C62.2628 21.1648 61.7706 21.5312 61.1399 21.7955C60.5092 22.0597 59.7848 22.1918 58.9666 22.1918C57.7649 22.1918 56.7976 21.9403 56.0646 21.4375C55.3317 20.9304 54.8949 20.2251 54.7543 19.3217L57.0107 19.1044C57.1129 19.5476 57.3303 19.8821 57.6626 20.108C57.995 20.3338 58.4276 20.4467 58.9602 20.4467C59.5099 20.4467 59.951 20.3338 60.2834 20.108C60.62 19.8821 60.7884 19.603 60.7884 19.2706C60.7884 18.9893 60.6797 18.7571 60.4624 18.5739C60.2493 18.3906 59.9169 18.25 59.4652 18.152L57.7905 17.8004C56.8487 17.6044 56.152 17.2741 55.7003 16.8097C55.2486 16.3409 55.0249 15.7486 55.0291 15.0327C55.0249 14.4276 55.1889 13.9034 55.5213 13.4602C55.858 13.0128 56.3246 12.6676 56.9212 12.4247C57.522 12.1776 58.2145 12.054 58.9986 12.054C60.1491 12.054 61.0547 12.299 61.7152 12.7891C62.38 13.2791 62.7912 13.9418 62.9489 14.777ZM67.3817 16.2472V22H65.0678V12.1818H67.2795V13.8501H67.3945C67.6204 13.3004 67.9805 12.8636 68.4748 12.5398C68.9734 12.2159 69.5891 12.054 70.3221 12.054C70.9996 12.054 71.5898 12.1989 72.0927 12.4886C72.5998 12.7784 72.9918 13.1982 73.2688 13.7479C73.5501 14.2976 73.6886 14.9645 73.6843 15.7486V22H71.3704V16.1065C71.3704 15.4503 71.1999 14.9368 70.859 14.5661C70.5224 14.1953 70.0558 14.0099 69.4592 14.0099C69.0543 14.0099 68.6942 14.0994 68.3789 14.2784C68.0678 14.4531 67.8228 14.7067 67.6438 15.0391C67.4691 15.3714 67.3817 15.7741 67.3817 16.2472ZM76.0366 22V12.1818H78.3505V22H76.0366ZM77.1999 10.7884C76.8335 10.7884 76.5181 10.6669 76.2539 10.424C75.9897 10.1768 75.8576 9.88068 75.8576 9.53551C75.8576 9.18608 75.9897 8.88991 76.2539 8.64702C76.5181 8.39986 76.8335 8.27628 77.1999 8.27628C77.5707 8.27628 77.886 8.39986 78.146 8.64702C78.4102 8.88991 78.5423 9.18608 78.5423 9.53551C78.5423 9.88068 78.4102 10.1768 78.146 10.424C77.886 10.6669 77.5707 10.7884 77.1999 10.7884ZM80.7299 25.6818V12.1818H83.0055V13.8054H83.1397C83.2591 13.5668 83.4274 13.3132 83.6447 13.0447C83.862 12.772 84.1561 12.5398 84.5268 12.348C84.8975 12.152 85.3706 12.054 85.9458 12.054C86.7044 12.054 87.3883 12.2479 87.9977 12.6357C88.6113 13.0192 89.0971 13.5881 89.4551 14.3423C89.8173 15.0923 89.9984 16.0128 89.9984 17.1037C89.9984 18.1818 89.8216 19.098 89.4679 19.8523C89.1142 20.6065 88.6326 21.1818 88.0233 21.5781C87.4139 21.9744 86.7235 22.1726 85.9522 22.1726C85.3897 22.1726 84.9231 22.0788 84.5524 21.8913C84.1816 21.7038 83.8833 21.478 83.6575 21.2138C83.4359 20.9453 83.2633 20.6918 83.1397 20.4531H83.0439V25.6818H80.7299ZM82.9991 17.0909C82.9991 17.7259 83.0886 18.282 83.2676 18.7592C83.4508 19.2365 83.7129 19.6094 84.0538 19.8778C84.399 20.142 84.8166 20.2741 85.3066 20.2741C85.818 20.2741 86.2463 20.1378 86.5914 19.8651C86.9366 19.5881 87.1966 19.2109 87.3713 18.7337C87.5502 18.2521 87.6397 17.7045 87.6397 17.0909C87.6397 16.4815 87.5524 15.9403 87.3777 15.4673C87.2029 14.9943 86.943 14.6236 86.5978 14.3551C86.2527 14.0866 85.8223 13.9524 85.3066 13.9524C84.8123 13.9524 84.3926 14.0824 84.0474 14.3423C83.7022 14.6023 83.4402 14.9666 83.2612 15.4354C83.0865 15.9041 82.9991 16.456 82.9991 17.0909ZM91.9799 25.6818V12.1818H94.2555V13.8054H94.3897C94.5091 13.5668 94.6774 13.3132 94.8947 13.0447C95.112 12.772 95.4061 12.5398 95.7768 12.348C96.1475 12.152 96.6206 12.054 97.1958 12.054C97.9544 12.054 98.6383 12.2479 99.2477 12.6357C99.8613 13.0192 100.347 13.5881 100.705 14.3423C101.067 15.0923 101.248 16.0128 101.248 17.1037C101.248 18.1818 101.072 19.098 100.718 19.8523C100.364 20.6065 99.8826 21.1818 99.2733 21.5781C98.6639 21.9744 97.9735 22.1726 97.2022 22.1726C96.6397 22.1726 96.1731 22.0788 95.8024 21.8913C95.4316 21.7038 95.1333 21.478 94.9075 21.2138C94.6859 20.9453 94.5133 20.6918 94.3897 20.4531H94.2939V25.6818H91.9799ZM94.2491 17.0909C94.2491 17.7259 94.3386 18.282 94.5176 18.7592C94.7008 19.2365 94.9629 19.6094 95.3038 19.8778C95.649 20.142 96.0666 20.2741 96.5566 20.2741C97.068 20.2741 97.4963 20.1378 97.8414 19.8651C98.1866 19.5881 98.4466 19.2109 98.6213 18.7337C98.8002 18.2521 98.8897 17.7045 98.8897 17.0909C98.8897 16.4815 98.8024 15.9403 98.6277 15.4673C98.4529 14.9943 98.193 14.6236 97.8478 14.3551C97.5027 14.0866 97.0723 13.9524 96.5566 13.9524C96.0623 13.9524 95.6426 14.0824 95.2974 14.3423C94.9522 14.6023 94.6902 14.9666 94.5112 15.4354C94.3365 15.9041 94.2491 16.456 94.2491 17.0909ZM107.577 22.1918C106.592 22.1918 105.742 21.9872 105.026 21.5781C104.314 21.1648 103.767 20.581 103.383 19.8267C103 19.0682 102.808 18.1754 102.808 17.1484C102.808 16.1385 103 15.2521 103.383 14.4893C103.771 13.7223 104.312 13.1257 105.007 12.6996C105.702 12.2692 106.518 12.054 107.455 12.054C108.06 12.054 108.631 12.152 109.168 12.348C109.709 12.5398 110.187 12.8381 110.6 13.2429C111.018 13.6477 111.346 14.1634 111.584 14.7898C111.823 15.4119 111.942 16.1534 111.942 17.0142V17.7237H103.895V16.1641H109.724C109.72 15.7209 109.624 15.3267 109.437 14.9815C109.249 14.6321 108.987 14.3572 108.65 14.157C108.318 13.9567 107.93 13.8565 107.487 13.8565C107.014 13.8565 106.599 13.9716 106.241 14.2017C105.883 14.4276 105.604 14.7259 105.403 15.0966C105.207 15.4631 105.107 15.8658 105.103 16.3047V17.6662C105.103 18.2372 105.207 18.7273 105.416 19.1364C105.625 19.5412 105.917 19.8523 106.292 20.0696C106.667 20.2827 107.106 20.3892 107.608 20.3892C107.945 20.3892 108.25 20.3423 108.523 20.2486C108.795 20.1506 109.032 20.0078 109.232 19.8203C109.432 19.6328 109.584 19.4006 109.686 19.1236L111.846 19.3665C111.71 19.9375 111.45 20.4361 111.067 20.8622C110.687 21.2841 110.202 21.6122 109.609 21.8466C109.017 22.0767 108.339 22.1918 107.577 22.1918ZM118.803 12.1818V13.9716H113.158V12.1818H118.803ZM114.552 9.82955H116.866V19.0469C116.866 19.358 116.913 19.5966 117.006 19.7628C117.104 19.9247 117.232 20.0355 117.39 20.0952C117.548 20.1548 117.722 20.1847 117.914 20.1847C118.059 20.1847 118.191 20.174 118.31 20.1527C118.434 20.1314 118.528 20.1122 118.592 20.0952L118.982 21.9041C118.858 21.9467 118.681 21.9936 118.451 22.0447C118.225 22.0959 117.948 22.1257 117.62 22.1342C117.04 22.1513 116.518 22.0639 116.054 21.8722C115.589 21.6761 115.221 21.3736 114.948 20.9645C114.68 20.5554 114.548 20.044 114.552 19.4304V9.82955ZM128.357 14.777L126.248 15.0071C126.188 14.794 126.084 14.5938 125.934 14.4062C125.79 14.2188 125.594 14.0675 125.346 13.9524C125.099 13.8374 124.797 13.7798 124.439 13.7798C123.957 13.7798 123.552 13.8842 123.224 14.093C122.9 14.3018 122.741 14.5724 122.745 14.9048C122.741 15.1903 122.845 15.4226 123.058 15.6016C123.275 15.7805 123.633 15.9276 124.132 16.0426L125.807 16.4006C126.736 16.6009 127.426 16.9183 127.878 17.353C128.334 17.7876 128.564 18.3565 128.568 19.0597C128.564 19.6776 128.383 20.223 128.025 20.696C127.671 21.1648 127.179 21.5312 126.548 21.7955C125.917 22.0597 125.193 22.1918 124.375 22.1918C123.173 22.1918 122.206 21.9403 121.473 21.4375C120.74 20.9304 120.303 20.2251 120.162 19.3217L122.419 19.1044C122.521 19.5476 122.738 19.8821 123.071 20.108C123.403 20.3338 123.836 20.4467 124.368 20.4467C124.918 20.4467 125.359 20.3338 125.692 20.108C126.028 19.8821 126.197 19.603 126.197 19.2706C126.197 18.9893 126.088 18.7571 125.871 18.5739C125.657 18.3906 125.325 18.25 124.873 18.152L123.199 17.8004C122.257 17.6044 121.56 17.2741 121.108 16.8097C120.657 16.3409 120.433 15.7486 120.437 15.0327C120.433 14.4276 120.597 13.9034 120.93 13.4602C121.266 13.0128 121.733 12.6676 122.329 12.4247C122.93 12.1776 123.623 12.054 124.407 12.054C125.557 12.054 126.463 12.299 127.123 12.7891C127.788 13.2791 128.199 13.9418 128.357 14.777Z" fill="#252521"/>
</svg>
