<svg width="130" height="22" viewBox="0 0 132 22" fill="none" xmlns="http://www.w3.org/2000/svg">
<path d="M13.8029 7.07422H10.5366C10.4769 6.65163 10.3551 6.27628 10.1712 5.94815C9.98722 5.61506 9.75107 5.33168 9.46271 5.09801C9.17436 4.86435 8.84126 4.68537 8.46342 4.56108C8.09055 4.43679 7.68537 4.37465 7.24787 4.37465C6.45739 4.37465 5.76882 4.57102 5.18217 4.96378C4.59553 5.35156 4.14063 5.91832 3.81747 6.66406C3.49432 7.40483 3.33274 8.30469 3.33274 9.36364C3.33274 10.4524 3.49432 11.3672 3.81747 12.108C4.1456 12.8487 4.60298 13.408 5.18963 13.7859C5.77628 14.1637 6.4549 14.3526 7.2255 14.3526C7.65803 14.3526 8.05824 14.2955 8.42614 14.1811C8.79901 14.0668 9.12962 13.9002 9.41797 13.6815C9.70632 13.4577 9.94496 13.1868 10.1339 12.8686C10.3278 12.5504 10.462 12.1875 10.5366 11.7798L13.8029 11.7947C13.7184 12.4957 13.5071 13.1719 13.169 13.8232C12.8359 14.4695 12.386 15.0487 11.8192 15.5607C11.2575 16.0678 10.5863 16.4705 9.80575 16.7688C9.03018 17.0621 8.1527 17.2088 7.1733 17.2088C5.81108 17.2088 4.59304 16.9006 3.51918 16.2841C2.45028 15.6676 1.60511 14.7752 0.983665 13.6069C0.367188 12.4386 0.0589489 11.0241 0.0589489 9.36364C0.0589489 7.69815 0.372159 6.28125 0.99858 5.11293C1.625 3.9446 2.47514 3.05469 3.54901 2.44318C4.62287 1.8267 5.83097 1.51847 7.1733 1.51847C8.05824 1.51847 8.87855 1.64276 9.63423 1.89133C10.3949 2.13991 11.0685 2.50284 11.6552 2.98011C12.2418 3.45241 12.7191 4.0316 13.087 4.71768C13.4599 5.40376 13.6985 6.18928 13.8029 7.07422ZM24.4036 6.11967C24.3439 5.51811 24.0879 5.05078 23.6355 4.71768C23.1831 4.38459 22.5691 4.21804 21.7935 4.21804C21.2665 4.21804 20.8216 4.29261 20.4586 4.44176C20.0957 4.58594 19.8173 4.78729 19.6234 5.04581C19.4345 5.30433 19.34 5.59766 19.34 5.92578C19.3301 6.19922 19.3873 6.43786 19.5115 6.64169C19.6408 6.84553 19.8173 7.02202 20.041 7.17116C20.2647 7.31534 20.5233 7.44212 20.8166 7.55149C21.1099 7.65589 21.4231 7.74538 21.7562 7.81996L23.1284 8.14808C23.7946 8.29723 24.4061 8.49609 24.9629 8.74467C25.5197 8.99325 26.002 9.29901 26.4096 9.66193C26.8173 10.0249 27.133 10.4524 27.3567 10.9446C27.5854 11.4368 27.7022 12.0011 27.7072 12.6374C27.7022 13.5721 27.4636 14.3825 26.9913 15.0685C26.524 15.7496 25.8478 16.2791 24.9629 16.657C24.0829 17.0298 23.0215 17.2163 21.7786 17.2163C20.5456 17.2163 19.4718 17.0273 18.557 16.6495C17.6472 16.2717 16.9363 15.7124 16.4242 14.9716C15.9171 14.2259 15.6511 13.3036 15.6262 12.2049H18.7509C18.7857 12.717 18.9324 13.1445 19.1909 13.4876C19.4544 13.8256 19.8049 14.0817 20.2424 14.2557C20.6848 14.4247 21.1845 14.5092 21.7413 14.5092C22.2882 14.5092 22.763 14.4297 23.1657 14.2706C23.5733 14.1115 23.889 13.8903 24.1127 13.6069C24.3365 13.3235 24.4483 12.9979 24.4483 12.63C24.4483 12.2869 24.3464 11.9986 24.1426 11.7649C23.9437 11.5312 23.6504 11.3324 23.2626 11.1683C22.8798 11.0043 22.41 10.8551 21.8532 10.7209L20.1902 10.3033C18.9025 9.99006 17.8858 9.50035 17.1401 8.83416C16.3944 8.16797 16.024 7.2706 16.0289 6.14204C16.024 5.21733 16.2701 4.40945 16.7672 3.7184C17.2694 3.02734 17.9579 2.48793 18.8329 2.10014C19.7079 1.71236 20.7022 1.51847 21.8159 1.51847C22.9494 1.51847 23.9387 1.71236 24.7839 2.10014C25.6341 2.48793 26.2953 3.02734 26.7676 3.7184C27.2399 4.40945 27.4835 5.20987 27.4984 6.11967H24.4036ZM38.1643 6.11967C38.1047 5.51811 37.8486 5.05078 37.3962 4.71768C36.9438 4.38459 36.3298 4.21804 35.5542 4.21804C35.0273 4.21804 34.5823 4.29261 34.2194 4.44176C33.8564 4.58594 33.578 4.78729 33.3841 5.04581C33.1952 5.30433 33.1008 5.59766 33.1008 5.92578C33.0908 6.19922 33.148 6.43786 33.2723 6.64169C33.4015 6.84553 33.578 7.02202 33.8018 7.17116C34.0255 7.31534 34.284 7.44212 34.5773 7.55149C34.8706 7.65589 35.1839 7.74538 35.517 7.81996L36.8891 8.14808C37.5553 8.29723 38.1668 8.49609 38.7236 8.74467C39.2805 8.99325 39.7627 9.29901 40.1704 9.66193C40.578 10.0249 40.8937 10.4524 41.1175 10.9446C41.3461 11.4368 41.463 12.0011 41.468 12.6374C41.463 13.5721 41.2243 14.3825 40.752 15.0685C40.2847 15.7496 39.6086 16.2791 38.7236 16.657C37.8437 17.0298 36.7822 17.2163 35.5393 17.2163C34.3064 17.2163 33.2325 17.0273 32.3177 16.6495C31.4079 16.2717 30.697 15.7124 30.1849 14.9716C29.6778 14.2259 29.4118 13.3036 29.387 12.2049H32.5116C32.5464 12.717 32.6931 13.1445 32.9516 13.4876C33.2151 13.8256 33.5656 14.0817 34.0031 14.2557C34.4456 14.4247 34.9452 14.5092 35.502 14.5092C36.0489 14.5092 36.5237 14.4297 36.9264 14.2706C37.3341 14.1115 37.6498 13.8903 37.8735 13.6069C38.0972 13.3235 38.2091 12.9979 38.2091 12.63C38.2091 12.2869 38.1072 11.9986 37.9033 11.7649C37.7045 11.5312 37.4111 11.3324 37.0233 11.1683C36.6405 11.0043 36.1707 10.8551 35.6139 10.7209L33.9509 10.3033C32.6633 9.99006 31.6466 9.50035 30.9008 8.83416C30.1551 8.16797 29.7847 7.2706 29.7897 6.14204C29.7847 5.21733 30.0308 4.40945 30.528 3.7184C31.0301 3.02734 31.7187 2.48793 32.5937 2.10014C33.4687 1.71236 34.463 1.51847 35.5766 1.51847C36.7101 1.51847 37.6995 1.71236 38.5447 2.10014C39.3948 2.48793 40.056 3.02734 40.5283 3.7184C41.0006 4.40945 41.2442 5.20987 41.2591 6.11967H38.1643Z" fill="#4263EB"/>
<path d="M53.1108 8.81179L50.2024 8.99077C50.1527 8.74219 50.0458 8.51847 49.8817 8.3196C49.7177 8.11577 49.5014 7.95419 49.233 7.83487C48.9695 7.71058 48.6538 7.64844 48.2859 7.64844C47.7937 7.64844 47.3786 7.75284 47.0405 7.96165C46.7024 8.16548 46.5334 8.43892 46.5334 8.78196C46.5334 9.0554 46.6428 9.28658 46.8615 9.4755C47.0803 9.66442 47.4556 9.81605 47.9876 9.9304L50.0607 10.348C51.1744 10.5767 52.0046 10.9446 52.5515 11.4517C53.0984 11.9588 53.3718 12.625 53.3718 13.4503C53.3718 14.201 53.1506 14.8597 52.7081 15.4265C52.2706 15.9933 51.669 16.4357 50.9034 16.7539C50.1428 17.0671 49.2653 17.2237 48.271 17.2237C46.7546 17.2237 45.5465 16.908 44.6467 16.2766C43.7518 15.6403 43.2273 14.7752 43.0732 13.6815L46.1978 13.5174C46.2923 13.9798 46.521 14.3327 46.8839 14.5763C47.2468 14.815 47.7116 14.9343 48.2784 14.9343C48.8352 14.9343 49.2827 14.8274 49.6207 14.6136C49.9638 14.3949 50.1378 14.114 50.1428 13.771C50.1378 13.4826 50.016 13.2464 49.7773 13.0625C49.5387 12.8736 49.1708 12.7294 48.6737 12.63L46.69 12.2347C45.5714 12.011 44.7386 11.6232 44.1918 11.0714C43.6499 10.5195 43.3789 9.81605 43.3789 8.96094C43.3789 8.22514 43.5778 7.59126 43.9755 7.0593C44.3782 6.52734 44.9425 6.11719 45.6683 5.82883C46.3991 5.54048 47.2543 5.39631 48.2337 5.39631C49.6804 5.39631 50.8189 5.70206 51.6491 6.31356C52.4844 6.92507 52.9716 7.75781 53.1108 8.81179ZM58.5491 10.3778V17H55.3722V5.54545H58.3999V7.56641H58.5342C58.7877 6.90021 59.2128 6.37322 59.8094 5.98544C60.406 5.59268 61.1294 5.39631 61.9795 5.39631C62.7749 5.39631 63.4685 5.57031 64.0601 5.91832C64.6517 6.26633 65.1116 6.76349 65.4397 7.4098C65.7678 8.05114 65.9319 8.81676 65.9319 9.70668V17H62.7551V10.2734C62.76 9.57244 62.5811 9.02557 62.2181 8.63281C61.8552 8.23509 61.3556 8.03622 60.7192 8.03622C60.2916 8.03622 59.9138 8.1282 59.5857 8.31214C59.2625 8.49609 59.009 8.76456 58.825 9.11754C58.646 9.46555 58.5541 9.88565 58.5491 10.3778ZM68.4357 17V5.54545H71.6126V17H68.4357ZM70.0316 4.06889C69.5593 4.06889 69.1541 3.91229 68.8161 3.59908C68.483 3.28089 68.3164 2.90057 68.3164 2.4581C68.3164 2.0206 68.483 1.64524 68.8161 1.33203C69.1541 1.01385 69.5593 0.854758 70.0316 0.854758C70.5039 0.854758 70.9066 1.01385 71.2397 1.33203C71.5778 1.64524 71.7468 2.0206 71.7468 2.4581C71.7468 2.90057 71.5778 3.28089 71.2397 3.59908C70.9066 3.91229 70.5039 4.06889 70.0316 4.06889ZM74.1574 21.2955V5.54545H77.2895V7.46946H77.4312C77.5704 7.16122 77.7718 6.84801 78.0352 6.52983C78.3037 6.20668 78.6517 5.93821 79.0793 5.72443C79.5118 5.50568 80.0487 5.39631 80.6901 5.39631C81.5253 5.39631 82.2959 5.61506 83.0019 6.05256C83.7078 6.48509 84.2721 7.13885 84.6947 8.01385C85.1173 8.88388 85.3286 9.97514 85.3286 11.2876C85.3286 12.5653 85.1222 13.6442 84.7096 14.5241C84.3019 15.3991 83.7451 16.0629 83.0392 16.5153C82.3382 16.9627 81.5526 17.1864 80.6826 17.1864C80.0661 17.1864 79.5416 17.0845 79.1091 16.8807C78.6816 16.6768 78.3311 16.4208 78.0576 16.1126C77.7842 15.7994 77.5754 15.4837 77.4312 15.1655H77.3343V21.2955H74.1574ZM77.2671 11.2727C77.2671 11.9538 77.3616 12.5479 77.5505 13.055C77.7394 13.5621 78.0129 13.9574 78.3708 14.2408C78.7288 14.5192 79.1638 14.6584 79.6759 14.6584C80.1929 14.6584 80.6304 14.5167 80.9884 14.2333C81.3463 13.945 81.6173 13.5472 81.8012 13.0401C81.9901 12.5281 82.0846 11.9389 82.0846 11.2727C82.0846 10.6115 81.9926 10.0298 81.8087 9.5277C81.6247 9.02557 81.3538 8.63281 80.9958 8.34943C80.6379 8.06605 80.1979 7.92436 79.6759 7.92436C79.1588 7.92436 78.7213 8.06108 78.3634 8.33452C78.0104 8.60795 77.7394 8.99574 77.5505 9.49787C77.3616 10 77.2671 10.5916 77.2671 11.2727ZM87.4465 21.2955V5.54545H90.5786V7.46946H90.7203C90.8595 7.16122 91.0608 6.84801 91.3243 6.52983C91.5928 6.20668 91.9408 5.93821 92.3683 5.72443C92.8009 5.50568 93.3378 5.39631 93.9791 5.39631C94.8144 5.39631 95.585 5.61506 96.2909 6.05256C96.9969 6.48509 97.5612 7.13885 97.9838 8.01385C98.4063 8.88388 98.6176 9.97514 98.6176 11.2876C98.6176 12.5653 98.4113 13.6442 97.9987 14.5241C97.591 15.3991 97.0342 16.0629 96.3282 16.5153C95.6272 16.9627 94.8417 17.1864 93.9717 17.1864C93.3552 17.1864 92.8307 17.0845 92.3982 16.8807C91.9706 16.6768 91.6201 16.4208 91.3467 16.1126C91.0732 15.7994 90.8644 15.4837 90.7203 15.1655H90.6233V21.2955H87.4465ZM90.5562 11.2727C90.5562 11.9538 90.6507 12.5479 90.8396 13.055C91.0285 13.5621 91.3019 13.9574 91.6599 14.2408C92.0178 14.5192 92.4529 14.6584 92.9649 14.6584C93.482 14.6584 93.9195 14.5167 94.2774 14.2333C94.6354 13.945 94.9063 13.5472 95.0903 13.0401C95.2792 12.5281 95.3737 11.9389 95.3737 11.2727C95.3737 10.6115 95.2817 10.0298 95.0977 9.5277C94.9138 9.02557 94.6428 8.63281 94.2849 8.34943C93.9269 8.06605 93.4869 7.92436 92.9649 7.92436C92.4479 7.92436 92.0104 8.06108 91.6524 8.33452C91.2994 8.60795 91.0285 8.99574 90.8396 9.49787C90.6507 10 90.5562 10.5916 90.5562 11.2727ZM105.956 17.2237C104.777 17.2237 103.763 16.9851 102.913 16.5078C102.068 16.0256 101.417 15.3445 100.959 14.4645C100.502 13.5795 100.273 12.533 100.273 11.3249C100.273 10.1467 100.502 9.11257 100.959 8.22266C101.417 7.33274 102.06 6.6392 102.891 6.14204C103.726 5.64489 104.705 5.39631 105.829 5.39631C106.585 5.39631 107.288 5.51811 107.939 5.76172C108.596 6.00035 109.167 6.3608 109.655 6.84304C110.147 7.32528 110.53 7.93182 110.803 8.66264C111.076 9.38849 111.213 10.2386 111.213 11.2131V12.0856H101.541V10.1168H108.223C108.223 9.65945 108.123 9.25426 107.924 8.90128C107.726 8.5483 107.45 8.27237 107.097 8.07351C106.749 7.86967 106.343 7.76776 105.881 7.76776C105.399 7.76776 104.971 7.87962 104.598 8.10334C104.231 8.32209 103.942 8.6179 103.733 8.99077C103.525 9.35866 103.418 9.76882 103.413 10.2212V12.093C103.413 12.6598 103.517 13.1495 103.726 13.5621C103.94 13.9748 104.241 14.293 104.628 14.5167C105.016 14.7404 105.476 14.8523 106.008 14.8523C106.361 14.8523 106.684 14.8026 106.977 14.7031C107.271 14.6037 107.522 14.4545 107.731 14.2557C107.939 14.0568 108.098 13.8132 108.208 13.5249L111.146 13.7188C110.997 14.4247 110.691 15.0412 110.229 15.5682C109.771 16.0902 109.18 16.4979 108.454 16.7912C107.733 17.0795 106.9 17.2237 105.956 17.2237ZM119.379 5.54545V7.93182H112.481V5.54545H119.379ZM114.047 2.80114H117.224V13.4801C117.224 13.7734 117.269 14.0021 117.358 14.1662C117.448 14.3253 117.572 14.4371 117.731 14.5018C117.895 14.5664 118.084 14.5987 118.298 14.5987C118.447 14.5987 118.596 14.5863 118.745 14.5614C118.894 14.5316 119.009 14.5092 119.088 14.4943L119.588 16.8583C119.429 16.908 119.205 16.9652 118.917 17.0298C118.628 17.0994 118.278 17.1417 117.865 17.1566C117.1 17.1864 116.428 17.0845 115.852 16.8509C115.28 16.6172 114.835 16.2543 114.517 15.7621C114.199 15.2699 114.042 14.6484 114.047 13.8977V2.80114ZM130.835 8.81179L127.927 8.99077C127.877 8.74219 127.77 8.51847 127.606 8.3196C127.442 8.11577 127.226 7.95419 126.958 7.83487C126.694 7.71058 126.378 7.64844 126.01 7.64844C125.518 7.64844 125.103 7.75284 124.765 7.96165C124.427 8.16548 124.258 8.43892 124.258 8.78196C124.258 9.0554 124.367 9.28658 124.586 9.4755C124.805 9.66442 125.18 9.81605 125.712 9.9304L127.785 10.348C128.899 10.5767 129.729 10.9446 130.276 11.4517C130.823 11.9588 131.096 12.625 131.096 13.4503C131.096 14.201 130.875 14.8597 130.433 15.4265C129.995 15.9933 129.394 16.4357 128.628 16.7539C127.867 17.0671 126.99 17.2237 125.996 17.2237C124.479 17.2237 123.271 16.908 122.371 16.2766C121.476 15.6403 120.952 14.7752 120.798 13.6815L123.922 13.5174C124.017 13.9798 124.246 14.3327 124.608 14.5763C124.971 14.815 125.436 14.9343 126.003 14.9343C126.56 14.9343 127.007 14.8274 127.345 14.6136C127.688 14.3949 127.862 14.114 127.867 13.771C127.862 13.4826 127.741 13.2464 127.502 13.0625C127.263 12.8736 126.895 12.7294 126.398 12.63L124.415 12.2347C123.296 12.011 122.463 11.6232 121.916 11.0714C121.374 10.5195 121.104 9.81605 121.104 8.96094C121.104 8.22514 121.302 7.59126 121.7 7.0593C122.103 6.52734 122.667 6.11719 123.393 5.82883C124.124 5.54048 124.979 5.39631 125.958 5.39631C127.405 5.39631 128.544 5.70206 129.374 6.31356C130.209 6.92507 130.696 7.75781 130.835 8.81179Z" fill="#252521"/>
</svg>
